PathFileType	4	(X/Y/Z)	C:/Users/opensim2020/Desktop/walking_exp_matlab/subject03_walking14_straight_03.trc	
DataRate	CameraRate	NumFrames	NumMarkers	Units	OrigDataRate	OrigDataStartFrame	OrigNumFrames	
100.00	100.00	4	47	mm	100.00	1635	215	
Frame#	Time	LFHD			RFHD			LBHD			RBHD			C7			T10			CLAV			STRN			RBAK			LSHO			LUPA			LELB			LFRM			LWRA			LWRB			LFIN			RSHO			RUPA			RELB			RFRM			RWRA			RWRB			RFIN			LASI			RASI			LPSI			RPSI			LTHI			LKNE			LTIB			LANK			LHEE			LTOE			RTHI			RKNE			RTIB			RANK			RHEE			RTOE			*39			*40			*41			*42			*43			*44			*45			*46			
		X1	Y1	Z1	X2	Y2	Z2	X3	Y3	Z3	X4	Y4	Z4	X5	Y5	Z5	X6	Y6	Z6	X7	Y7	Z7	X8	Y8	Z8	X9	Y9	Z9	X10	Y10	Z10	X11	Y11	Z11	X12	Y12	Z12	X13	Y13	Z13	X14	Y14	Z14	X15	Y15	Z15	X16	Y16	Z16	X17	Y17	Z17	X18	Y18	Z18	X19	Y19	Z19	X20	Y20	Z20	X21	Y21	Z21	X22	Y22	Z22	X23	Y23	Z23	X24	Y24	Z24	X25	Y25	Z25	X26	Y26	Z26	X27	Y27	Z27	X28	Y28	Z28	X29	Y29	Z29	X30	Y30	Z30	X31	Y31	Z31	X32	Y32	Z32	X33	Y33	Z33	X34	Y34	Z34	X35	Y35	Z35	X36	Y36	Z36	X37	Y37	Z37	X38	Y38	Z38	X39	Y39	Z39	X40	Y40	Z40	X41	Y41	Z41	X42	Y42	Z42	X43	Y43	Z43	X44	Y44	Z44	X45	Y45	Z45	X46	Y46	Z46	X47	Y47	Z47	

54	0.530	1389.87317	-869.96893	1625.47131	1522.01318	-853.10266	1627.02417	1408.28613	-982.68292	1553.26782	1537.37231	-961.56177	1555.36499	1458.75574	-986.84760	1419.09753	1446.87109	-1056.42566	1115.39343	1443.57971	-867.49475	1336.61951	1429.03271	-845.22314	1166.18323	1557.38757	-1042.17078	1250.60632	1294.20435	-923.45349	1387.34412	1213.78674	-979.98383	1201.55640	1193.33423	-999.18933	1080.53662	1185.29688	-985.62366	951.36646	1209.02161	-969.97491	832.10376	1163.81055	-1001.31335	839.76892	1165.27820	-983.87860	758.37183	1606.92200	-893.90515	1356.23425	1676.81824	-868.68146	1137.30566	1686.17200	-836.44171	1029.36768	1680.10449	-791.65222	900.38348	1636.06787	-745.19611	816.17230	1681.63940	-770.08130	802.30109	1667.22217	-731.60236	740.47290	1322.69556	-912.15887	937.93427	1555.51758	-902.80066	937.24695	1373.97278	-1071.50391	964.73309	1522.48364	-1063.10620	980.22534	1261.68286	-897.07794	646.15344	1291.03320	-827.15900	481.66470	1306.53223	-875.07141	288.72266	1358.50696	-893.72205	82.77533	1404.71741	-930.33087	51.00802	1361.39624	-748.89429	45.28507	1601.34839	-992.03644	650.12939	1566.06909	-1005.01605	471.94263	1576.29736	-1071.29565	290.99295	1532.54370	-1120.35095	77.10033	1485.80054	-1169.74548	44.82910	1503.85364	-982.05322	38.13308				1455.03247	-956.69672	1664.08813																		 
55	0.540	1389.67517	-858.86627	1623.75647	1521.78455	-842.10242	1625.47437	1408.10876	-971.47028	1551.41040	1537.23303	-950.49609	1553.72180	1458.45251	-975.35657	1417.56775	1446.19678	-1045.86584	1114.05408	1443.68909	-856.35968	1334.87891	1429.64709	-834.38928	1164.43628	1557.07751	-1031.57349	1249.47961	1294.01184	-911.91742	1385.59888	1213.87964	-970.33167	1200.27148	1193.35791	-991.47540	1079.24792	1185.19482	-981.07813	949.48682	1208.64380	-969.50867	829.63965	1163.06311	-1000.05768	838.52606	1164.88135	-985.78406	756.36322	1606.91602	-882.94086	1354.70288	1677.28552	-856.63477	1136.37219	1686.70544	-823.14288	1028.91785	1679.81897	-775.51538	900.99310	1635.25330	-727.01215	818.35443	1680.56555	-751.70813	803.41193	1665.59814	-711.83563	742.78241	1323.13916	-900.19879	936.56982	1555.78528	-892.29279	936.31683	1373.12524	-1060.17542	962.69171	1521.68262	-1052.92395	978.14453	1261.97314	-883.30823	645.05621	1292.97998	-811.79071	481.43494	1306.28833	-850.23322	286.73419	1356.13232	-856.13086	78.82640	1401.76062	-891.51141	46.52277	1360.96411	-709.04633	45.82266	1601.02490	-983.73981	648.98517	1565.87488	-998.65961	470.72186	1575.74841	-1067.32446	290.65643	1531.96436	-1119.71729	77.62708	1485.13855	-1169.46118	45.81233	1503.72144	-981.66388	37.91901				1454.70190	-945.70306	1662.33191																		 
56	0.550	1389.40527	-847.60931	1621.95654	1521.49316	-830.97717	1623.74670	1407.89185	-960.15869	1549.46387	1536.97070	-939.26642	1551.97302	1458.10400	-963.91687	1416.09802	1445.42188	-1035.20044	1112.65857	1443.71729	-845.15771	1333.04871	1430.09485	-823.67963	1162.47656	1556.73535	-1020.95447	1248.24365	1293.79980	-900.06439	1383.55310	1213.87756	-960.13281	1198.44958	1193.49023	-982.56689	1077.58875	1185.07153	-976.29010	947.67096	1208.36926	-968.94409	827.26831	1162.35669	-998.57019	837.37402	1164.50354	-987.55951	754.55267	1606.80225	-872.06598	1353.18787	1677.58447	-844.81042	1135.33850	1687.21802	-809.99536	1028.39233	1679.49390	-759.63489	901.57819	1634.26123	-709.41553	820.42749	1679.43567	-733.64014	804.59332	1664.00354	-692.37109	745.06635	1323.44897	-888.02325	935.13904	1557.40149	-883.69305	934.05609	1372.19482	-1048.64063	960.43896	1520.82935	-1042.61450	976.01752	1262.05603	-869.64423	643.50250	1294.73181	-797.26801	480.95126	1306.19482	-826.72107	285.16223	1353.11792	-819.56964	76.51382	1398.20190	-853.86139	42.99128	1360.05688	-670.83466	47.60123	1600.96472	-975.29883	647.79443	1565.61121	-991.81238	469.45920	1575.25208	-1063.06824	290.38889	1531.27051	-1118.91821	78.24032	1484.63782	-1169.39771	47.33862	1503.55127	-981.06659	37.62885				1454.30042	-934.66272	1660.57275																		 
57	0.560	1389.02820	-836.35535	1620.15479	1521.11633	-819.76068	1622.05396	1407.55664	-948.71362	1547.43896	1536.64404	-927.93945	1550.12024	1457.57971	-952.50513	1414.57886	1444.61475	-1024.23083	1111.10645	1443.71179	-833.83838	1331.15259	1430.54004	-812.77545	1160.43896	1556.25134	-1010.22491	1247.05188	1293.41467	-887.96497	1381.57166	1213.86279	-949.47821	1196.64453	1193.73169	-973.66351	1076.23865	1185.00256	-971.08246	945.84796	1208.02905	-968.01331	825.09973	1161.74622	-996.78070	836.38629	1164.07117	-989.07892	753.05548	1606.51306	-861.20313	1351.54858	1677.91467	-833.08942	1134.28601	1687.63110	-797.01514	1027.78918	1679.13782	-744.07678	902.19006	1633.23547	-692.08435	822.36224	1678.31287	-715.95087	805.79388	1662.64038	-672.92767	747.45404	1323.59644	-875.31165	933.75659	1557.71558	-873.14154	932.56055	1371.21436	-1036.88232	958.13428	1519.88806	-1032.00964	973.64307	1262.18359	-856.39105	641.65356	1296.50647	-782.98138	479.99030	1306.02783	-803.61469	284.00842	1350.17578	-784.58594	75.24033	1395.24585	-817.10590	40.27599	1358.46985	-634.26398	51.36028	1600.57776	-966.26068	646.34509	1565.30774	-984.48999	468.14386	1574.66785	-1058.40979	290.04080	1530.48889	-1118.06042	79.00644	1483.65637	-1168.83325	48.73271	1503.39307	-980.48279	37.42970				1453.86279	-923.45068	1658.55090																		 
